<svg width="18" height="18" viewBox="0 0 18 18" fill="none" xmlns="http://www.w3.org/2000/svg">
<path d="M8.20459 1.44849C4.48555 1.44849 1.45605 4.47798 1.45605 8.19703C1.45605 11.9161 4.48555 14.9515 8.20459 14.9515C9.7931 14.9515 11.254 14.3948 12.4087 13.4705L15.2197 16.28C15.3616 16.416 15.5511 16.491 15.7476 16.489C15.944 16.487 16.1319 16.4082 16.271 16.2693C16.41 16.1304 16.4892 15.9427 16.4915 15.7462C16.4937 15.5497 16.419 15.3601 16.2832 15.2181L13.4722 12.407C14.3972 11.2506 14.9546 9.78738 14.9546 8.19703C14.9546 4.47798 11.9236 1.44849 8.20459 1.44849V1.44849ZM8.20459 2.94851C11.113 2.94851 13.4531 5.28866 13.4531 8.19703C13.4531 11.1054 11.113 13.4514 8.20459 13.4514C5.29621 13.4514 2.95605 11.1054 2.95605 8.19703C2.95605 5.28866 5.29621 2.94851 8.20459 2.94851Z" fill="#D0D0D0"/>
</svg>
